<svg xmlns="http://www.w3.org/2000/svg" viewBox="-9080 -13733.5 16.565 20">
  <defs>
    <style>
      .cls-1 {
        fill: #eb2227;
      }
    </style>
  </defs>
  <path id="Union_182" data-name="Union 182" class="cls-1" d="M-2177.575-1235.858a8.29,8.29,0,0,1-2.425-5.859,8.29,8.29,0,0,1,2.425-5.858,8.289,8.289,0,0,1,5.858-2.425,8.289,8.289,0,0,1,5.858,2.425,8.29,8.29,0,0,1,2.425,5.858,8.29,8.29,0,0,1-2.425,5.859l-5.858,5.858Zm.628-11.089a7.481,7.481,0,0,0-2.155,5.23,7.485,7.485,0,0,0,2.155,5.231l5.23,5.23,5.23-5.23a7.324,7.324,0,0,0,1.885-7.116,7.433,7.433,0,0,0-5.207-5.207,7.324,7.324,0,0,0-1.94-.261A7.449,7.449,0,0,0-2176.947-1246.947Zm2.424,4.467a2.791,2.791,0,0,1,1.729-2.6,2.809,2.809,0,0,1,3.053.607,2.8,2.8,0,0,1,.606,3.053,2.759,2.759,0,0,1-2.581,1.728A2.8,2.8,0,0,1-2174.523-1242.481Zm.921-.045a1.888,1.888,0,0,0,1.167,1.774,1.893,1.893,0,0,0,2.087-.4,1.94,1.94,0,0,0,.4-2.088,1.969,1.969,0,0,0-1.773-1.167A1.868,1.868,0,0,0-2173.6-1242.526Z" transform="translate(-6900 -12483.5)"/>
</svg>
