<svg xmlns="http://www.w3.org/2000/svg" viewBox="-7963.96 -13906.116 9.96 9.916">
  <defs>
    <style>
      .cls-1 {
        fill: #2c2c2c;
      }
    </style>
  </defs>
  <path id="Path_53" data-name="Path 53" class="cls-1" d="M10,9.057,7.009,6.066a3.687,3.687,0,0,0,.665-2.687A3.86,3.86,0,0,0,5.374.3a4.009,4.009,0,0,0-1.5-.3h0A3.831,3.831,0,0,0,.167,4.819,3.9,3.9,0,0,0,2.383,7.4,3.837,3.837,0,0,0,6.15,6.924L9.141,9.916ZM3.879,6.481a2.648,2.648,0,1,1,1.856-.776A2.622,2.622,0,0,1,3.879,6.481Z" transform="translate(-7964 -13906.116)"/>
</svg>
