<svg xmlns="http://www.w3.org/2000/svg" viewBox="-9080.001 -12741 130 34.676">
  <defs>
    <style>
      .cls-1 {
        fill: #e81d2c;
      }

      .cls-2 {
        fill: none;
        stroke: #808285;
        stroke-miterlimit: 10;
        stroke-width: 0.75px;
      }
    </style>
  </defs>
  <g id="Group_18" data-name="Group 18" transform="translate(-9079.947 -12740.947)">
    <g id="Group_3" data-name="Group 3" transform="translate(-0.053 -0.053)">
      <path id="Path_9" data-name="Path 9" class="cls-1" d="M36.624,1.011c1.92-.909,2.829-.808,2.829.1,0,1.213-.2,2.829-.3,4.042-.707,6.467-1.92,11.721-2.021,18.289C40.262,15.36,42.889,9.8,46.224,2.931,47.335.708,47.942,1.112,48.851.708,52.287-.808,52.388.1,51.983,2.021c-1.617,6.871-5.861,28.6-6.568,31.931-.2,1.01-1.213.606-1.516.2-1.213-1.718-2.627-1.718-2.425-2.829.808-5.558,3.537-19.5,4.244-22.837-3.638,7.477-7.376,16.774-9.4,22.129-.4,1.112-1.112,1.01-1.617.2-.707-1.112-1.92-1.718-2.122-3.132-.707-4.345.808-12.631,1.01-17.885-2.021,5.76-5.355,16.875-6.77,21.826-.606,2.122-2.627,1.718-2.122-.3,2.223-8.387,6.972-23.342,9.094-28.7.505-1.112,1.718-1.01,2.829-1.617" transform="translate(0.312 0.053)"/>
      <path id="Path_10" data-name="Path 10" class="cls-1" d="M24.757,0c-.606-.2-2.526.808-3.638,1.01a1.155,1.155,0,0,0-.808.707C18.492,5.962,16.875,10,15.36,13.642q-2.728.455-6.366,1.213c1.718-4.345,3.436-8.69,5.153-12.833C14.955,0,12.834-.2,11.924,1.819,10.813,4.547,8.792,9.6,6.468,15.46c-1.718.4-3.436.909-5.355,1.415C-.2,17.279-.3,17.582.3,18.391c.3.4,1.01.4,1.314.707.808.808,1.314,1.819,2.627,2.021C3.032,24.555,1.819,28.091.708,31.426c-.707,2.122,1.314,2.526,2.021.3,1.213-3.537,2.627-7.174,3.941-10.812,1.112-.3,3.941-.808,6.467-1.415C11.116,25.06,9.8,29.2,9.3,31.325c-.1.4.1.606.1.808.707,1.01,1.314,1.01,2.223,2.223a.76.76,0,0,0,1.314-.3c1.819-5.659,3.84-10.913,5.558-15.662a4.764,4.764,0,0,0,2.93-1.718c1.415-2.223,1.92-1.718,2.223-2.425.4-.808.1-1.617-1.415-1.415a10.734,10.734,0,0,0-1.718.2c1.718-4.446,3.233-8.185,4.345-11.115C25.363.91,25.363.2,24.757,0" transform="translate(0.053 0.053)"/>
      <path id="Path_11" data-name="Path 11" class="cls-1" d="M20.628,26.774c-.606.3-1.01,0-.3-1.112.1-.2.3-.3.4-.505.1.4.3.808.4,1.213a1.009,1.009,0,0,1-.505.4m1.01-4.951c-.1.2-.3.3-.4.4,0-.1-.1-.2-.1-.3-.4-1.617,1.516-1.213.505-.1m1.01,3.234c-.1.1-.3.2-.4.4-.2-.505-.3-1.01-.505-1.415a16.848,16.848,0,0,0,1.213-1.617c1.516-2.324-1.516-3.638-2.728-2.122a2.218,2.218,0,0,0-.3,2.324,9.3,9.3,0,0,0,.3.909c-.4.4-.808.808-1.415,1.516-1.415,1.718-1.01,3.84.505,4.345a2.71,2.71,0,0,0,2.627-.808c0,.1.1.2.1.3.4,1.01,1.617.707,1.213-.505a6.963,6.963,0,0,1-.3-.808c.2-.3.505-.606.707-.909.808-1.617-.1-2.425-1.01-1.617" transform="translate(0.242 0.259)"/>
    </g>
    <g id="Group_4" data-name="Group 4" transform="translate(73.967 11.318)">
      <path id="Path_12" data-name="Path 12" d="M79.061,11.2a2.8,2.8,0,0,1,.909.1c.3.1.606.1.808.2a2.571,2.571,0,0,0,.707.2,1.282,1.282,0,0,0,.606.1c.2,0,.3,0,.4-.1a.525.525,0,0,0,.2-.4h.4v4.345h-.2a8.535,8.535,0,0,0-.505-1.718,4.153,4.153,0,0,0-.808-1.314,3.159,3.159,0,0,0-1.112-.909,2.8,2.8,0,0,0-1.314-.3,3.374,3.374,0,0,0-1.516.3,2.866,2.866,0,0,0-1.01.909,6.614,6.614,0,0,0-.505,1.819,23.883,23.883,0,0,0-.2,3.031,20.492,20.492,0,0,0,.2,2.829,5.82,5.82,0,0,0,.505,1.718,1.983,1.983,0,0,0,.909.909,3.211,3.211,0,0,0,1.415.2,3.347,3.347,0,0,0,1.92-.505,2.081,2.081,0,0,0,.606-1.718V18.273H79.97v-.3h5.052v.3H83.507v4.85h-.3a.873.873,0,0,0-.3-.606.742.742,0,0,0-.606-.2,1.436,1.436,0,0,0-.606.2,5.8,5.8,0,0,0-.707.4c-.2.1-.505.2-.909.4a4.484,4.484,0,0,1-1.314.2,5.507,5.507,0,0,1-2.223-.505,4.355,4.355,0,0,1-1.718-1.314,6.215,6.215,0,0,1-1.213-1.92,5.928,5.928,0,0,1-.4-2.324,6.114,6.114,0,0,1,.4-2.425,8.261,8.261,0,0,1,1.213-2.021,4.677,4.677,0,0,1,1.819-1.314A7.441,7.441,0,0,1,79.061,11.2Z" transform="translate(-73.2 -11.2)"/>
      <path id="Path_13" data-name="Path 13" d="M96.418,22.516a1.352,1.352,0,0,1-.808.707,3.633,3.633,0,0,1-1.112.2,2.018,2.018,0,0,1-.909-.2,1.358,1.358,0,0,1-.707-.606,2.846,2.846,0,0,1-.4-1.112,9.28,9.28,0,0,1-.1-1.819,4.163,4.163,0,0,0-.1-1.213,2.031,2.031,0,0,0-.4-.808,1.522,1.522,0,0,0-.808-.4,4.164,4.164,0,0,0-1.213-.1H88.537v5.962h1.516v.3H85v-.3h1.516V11.6H85v-.3h4.547a5.847,5.847,0,0,1,3.335.707,2.346,2.346,0,0,1,1.112,2.223,2.3,2.3,0,0,1-.3,1.112,2.724,2.724,0,0,1-.707.808,3.921,3.921,0,0,1-1.112.606,3.374,3.374,0,0,1-1.516.3,12.613,12.613,0,0,1,2.122.2,2.645,2.645,0,0,1,1.314.606A2,2,0,0,1,94.4,18.98a9.063,9.063,0,0,1,.2,1.819V21.91a3.573,3.573,0,0,0,.1.606c.1.2.1.3.2.3s.2.1.3.1a1.222,1.222,0,0,0,.909-.606Zm-6.972-5.355a2.162,2.162,0,0,0,1.819-.707,3.316,3.316,0,0,0,.606-2.122,3.017,3.017,0,0,0-.606-2.021,2.082,2.082,0,0,0-1.718-.707h-1.01v5.558Z" transform="translate(-73.076 -11.199)"/>
      <path id="Path_14" data-name="Path 14" d="M101.859,11.2a5.507,5.507,0,0,1,2.223.505,6,6,0,0,1,1.819,1.314,6.215,6.215,0,0,1,1.213,1.92,6.115,6.115,0,0,1,.4,2.425,6.793,6.793,0,0,1-.4,2.425,5.216,5.216,0,0,1-1.213,1.92,4.677,4.677,0,0,1-1.819,1.314,5.143,5.143,0,0,1-4.446,0,6,6,0,0,1-1.819-1.314,7.686,7.686,0,0,1-1.213-1.92,6.114,6.114,0,0,1-.4-2.425,6.793,6.793,0,0,1,.4-2.425,6.214,6.214,0,0,1,1.213-1.92,4.677,4.677,0,0,1,1.819-1.314A5.507,5.507,0,0,1,101.859,11.2Zm0,.3a3.848,3.848,0,0,0-1.617.3,2.866,2.866,0,0,0-1.01.909,5.7,5.7,0,0,0-.505,1.819,24.7,24.7,0,0,0-.1,2.93,24.7,24.7,0,0,0,.1,2.93,6.615,6.615,0,0,0,.505,1.819,1.775,1.775,0,0,0,1.01.909,3.543,3.543,0,0,0,1.617.3,3.848,3.848,0,0,0,1.617-.3,2.866,2.866,0,0,0,1.01-.909,5.7,5.7,0,0,0,.505-1.819,24.7,24.7,0,0,0,.1-2.93,24.7,24.7,0,0,0-.1-2.93,5.7,5.7,0,0,0-.505-1.819,2.212,2.212,0,0,0-1.01-.909A3.848,3.848,0,0,0,101.859,11.5Z" transform="translate(-72.959 -11.2)"/>
      <path id="Path_15" data-name="Path 15" d="M117.7,11.7v8.387a3.031,3.031,0,0,1-1.01,2.627,4.938,4.938,0,0,1-3.031.808,4.734,4.734,0,0,1-3.031-.808,3.335,3.335,0,0,1-1.01-2.627V11.6H108.1v-.3h5.052v.3h-1.516v8.488a3.207,3.207,0,0,0,.707,2.324,2.469,2.469,0,0,0,2.021.707c2.021,0,3.031-1.01,3.031-3.132V11.6h-1.516v-.3h3.233v.3Z" transform="translate(-72.835 -11.199)"/>
      <path id="Path_16" data-name="Path 16" d="M123.847,11.4a6.031,6.031,0,0,1,3.638.909,3.126,3.126,0,0,1,1.213,2.627,2.938,2.938,0,0,1-1.213,2.526,5.9,5.9,0,0,1-3.537.909,4.145,4.145,0,0,1-1.112-.1v4.85h1.516v.3H119.3v-.3h1.516V11.7H119.3v-.3Zm-1.01,6.568a4.145,4.145,0,0,0,1.112.1,2.021,2.021,0,0,0,1.718-.808,3.754,3.754,0,0,0,.606-2.324,3.885,3.885,0,0,0-.606-2.425,1.97,1.97,0,0,0-1.819-.808h-1.01Z" transform="translate(-72.717 -11.198)"/>
    </g>
    <line id="Line_1" data-name="Line 1" class="cls-2" y2="31.122" transform="translate(63.155 1.92)"/>
  </g>
</svg>
