<svg xmlns="http://www.w3.org/2000/svg" viewBox="-9074.605 -14410 130.095 46.79">
  <defs>
    <style>
      .cls-1 {
        fill: #231f20;
      }

      .cls-2 {
        fill: #eb2227;
      }
    </style>
  </defs>
  <g id="Group_16" data-name="Group 16" transform="translate(-9074.605 -14410)">
    <path id="Path_1" data-name="Path 1" class="cls-1" d="M0,55.1c.542.8,1.226,1.791,2.027,2.97s1.7,2.428,2.64,3.8S6.6,64.623,7.614,66.037s1.98,2.782,2.923,4.1,1.791,2.522,2.593,3.63q1.167,1.662,1.909,2.687c.259-.377.731-1.061,1.414-2.027.684-.99,1.485-2.121,2.381-3.418s1.909-2.711,2.97-4.219,2.121-3.017,3.135-4.479c1.037-1.461,2-2.829,2.9-4.078.919-1.249,1.65-2.286,2.239-3.112V87.488H26.943V65.377c0-.259.024-.542.047-.825s.047-.542.047-.731c-.5.684-1.084,1.532-1.768,2.5s-1.391,2-2.145,3.112-1.509,2.216-2.31,3.371q-1.167,1.7-2.263,3.324c-.731,1.061-1.391,2.074-2.027,2.994-.613.919-1.131,1.7-1.532,2.31-.4-.519-.943-1.273-1.65-2.239-.684-.966-1.461-2.051-2.286-3.253s-1.674-2.451-2.569-3.724c-.9-1.3-1.721-2.5-2.5-3.63s-1.438-2.121-2.027-2.97-.99-1.438-1.2-1.768a4.46,4.46,0,0,0,.071.731A5.089,5.089,0,0,1,2.9,65.4V87.488H0Z" transform="translate(0 -42.112)"/>
    <path id="Path_2" data-name="Path 2" class="cls-1" d="M168.3,75.54a15.3,15.3,0,0,1,1.226-6.129,15.847,15.847,0,0,1,3.394-5.044,16.075,16.075,0,0,1,5.021-3.418A15.007,15.007,0,0,1,184.07,59.7a15.517,15.517,0,0,1,6.152,1.249,15.991,15.991,0,0,1,8.439,8.462,15.007,15.007,0,0,1,1.249,6.129,15.32,15.32,0,0,1-1.249,6.129,16.267,16.267,0,0,1-3.394,5.021,15.846,15.846,0,0,1-5.044,3.394,15.5,15.5,0,0,1-6.152,1.226,15.3,15.3,0,0,1-6.129-1.226,15.487,15.487,0,0,1-5.021-3.394,16.008,16.008,0,0,1-3.394-5.021A15.8,15.8,0,0,1,168.3,75.54Zm2.97,0a12.446,12.446,0,0,0,1.014,5.044,13.467,13.467,0,0,0,2.758,4.125,12.915,12.915,0,0,0,4.078,2.782,12.3,12.3,0,0,0,5,1.014,12.5,12.5,0,0,0,5.021-1.014,13.027,13.027,0,0,0,6.907-6.907,13.059,13.059,0,0,0,0-10.089,13.5,13.5,0,0,0-2.782-4.149,13.187,13.187,0,0,0-4.125-2.805,12.5,12.5,0,0,0-5.021-1.014,12.334,12.334,0,0,0-5.021,1.014,13.009,13.009,0,0,0-7.826,12Z" transform="translate(-128.628 -45.627)"/>
    <path id="Path_3" data-name="Path 3" class="cls-1" d="M324.1,61q.6,1.485,1.414,3.465c.542,1.32,1.108,2.758,1.721,4.243.613,1.509,1.226,3.064,1.862,4.667s1.249,3.159,1.862,4.667,1.179,2.923,1.721,4.243,1.014,2.5,1.414,3.465l.424,1.391.424-1.391q.6-1.485,1.414-3.465c.542-1.32,1.108-2.758,1.721-4.243.613-1.509,1.226-3.064,1.862-4.667s1.249-3.159,1.862-4.667,1.179-2.923,1.721-4.243,1.014-2.5,1.414-3.465h2.994c-.471,1.061-1.037,2.451-1.768,4.172-.707,1.7-1.485,3.583-2.31,5.634-.849,2.051-1.721,4.2-2.616,6.388-.919,2.216-1.791,4.337-2.617,6.388-.849,2.027-1.626,3.913-2.334,5.634-.731,1.721-1.3,3.112-1.744,4.2-.424-1.061-1.014-2.475-1.744-4.2s-1.509-3.607-2.334-5.634c-.849-2.027-1.7-4.172-2.593-6.388s-1.768-4.337-2.593-6.388c-.849-2.051-1.627-3.937-2.334-5.634-.731-1.7-1.3-3.088-1.744-4.172Z" transform="translate(-245.487 -46.621)"/>
    <path id="Path_4" data-name="Path 4" class="cls-1" d="M466.5,91.974V61h19.518v2.687H469.446V75H484.3v2.782h-14.85V89.192H486.63v2.782Z" transform="translate(-356.536 -46.621)"/>
    <path id="Path_5" data-name="Path 5" class="cls-2" d="M218.8,10.277,222.784,0,226.7,10.277l-3.96-2.923Z" transform="translate(-167.224)"/>
  </g>
</svg>
